<svg width="44px" height="33px" viewBox="0 0 2.08 1.56" fill="none" xmlns="http://www.w3.org/2000/svg">
 <path fill="#E8C300" d="M2.04 0.52c0.01,-0.01 0.02,-0.01 0.03,-0.01 0.01,0.01 0.01,0.02 0.01,0.03l0 0.83c0,0.05 -0.02,0.1 -0.05,0.14 -0.04,0.03 -0.09,0.05 -0.14,0.05l-1.69 0c-0.06,0 -0.11,-0.02 -0.14,-0.05 -0.04,-0.04 -0.06,-0.09 -0.06,-0.14l0 -0.83c0,-0.01 0,-0.02 0.01,-0.02 0.01,-0.01 0.02,-0.01 0.03,0 0.09,0.06 0.3,0.22 0.63,0.46l0.04 0.03c0.06,0.05 0.11,0.09 0.15,0.11 0.07,0.03 0.13,0.05 0.18,0.05 0.06,0 0.12,-0.02 0.18,-0.05 0.04,-0.03 0.09,-0.06 0.16,-0.11l0.04 -0.03c0.32,-0.23 0.53,-0.39 0.62,-0.46zm-1 0.52c0.04,0 0.08,-0.01 0.13,-0.05 0.03,-0.01 0.07,-0.04 0.13,-0.09l0.04 -0.02c0.34,-0.25 0.57,-0.42 0.69,-0.51l0.02 -0.02c0.02,-0.02 0.03,-0.04 0.03,-0.08l0 -0.07c0,-0.06 -0.02,-0.11 -0.05,-0.14 -0.04,-0.04 -0.09,-0.06 -0.14,-0.06l-1.69 0c-0.06,0 -0.11,0.02 -0.14,0.06 -0.04,0.03 -0.06,0.08 -0.06,0.14l0 0.07c0,0.04 0.01,0.06 0.04,0.08l0.03 0.02c0.11,0.09 0.34,0.26 0.67,0.51l0.05 0.02c0.05,0.05 0.09,0.08 0.12,0.09 0.05,0.04 0.1,0.05 0.13,0.05z"/>
</svg>
