<svg width="33px" height="44px" viewBox="0 0 0.62 0.83" fill="none" xmlns="http://www.w3.org/2000/svg">
 <path fill="#E8C300" d="M0.28 0.82c-0.03,-0.05 -0.07,-0.1 -0.11,-0.16 -0.05,-0.08 -0.09,-0.13 -0.11,-0.16 -0.02,-0.04 -0.04,-0.07 -0.05,-0.1 -0.01,-0.02 -0.01,-0.05 -0.01,-0.09 0,-0.05 0.01,-0.11 0.04,-0.15 0.03,-0.05 0.07,-0.09 0.12,-0.12 0.04,-0.03 0.1,-0.04 0.15,-0.04 0.06,0 0.11,0.01 0.16,0.04 0.05,0.03 0.08,0.07 0.11,0.12 0.03,0.04 0.04,0.1 0.04,0.15 0,0.04 0,0.07 -0.01,0.09 -0.01,0.03 -0.02,0.06 -0.05,0.1 -0.02,0.03 -0.05,0.08 -0.11,0.16l-0.11 0.16c0,0.01 -0.01,0.01 -0.03,0.01 -0.01,0 -0.02,0 -0.03,-0.01zm0.03 -0.38c0.04,0 0.07,-0.01 0.09,-0.04 0.03,-0.02 0.04,-0.05 0.04,-0.09 0,-0.03 -0.01,-0.06 -0.04,-0.09 -0.02,-0.03 -0.05,-0.04 -0.09,-0.04 -0.03,0 -0.06,0.01 -0.09,0.04 -0.03,0.03 -0.04,0.06 -0.04,0.09 0,0.04 0.01,0.07 0.04,0.09 0.03,0.03 0.06,0.04 0.09,0.04z"/>
</svg>
