<svg width="44px" height="44px" viewBox="0 0 3.88 3.88" fill="none" xmlns="http://www.w3.org/2000/svg">
 <path fill="#E8C300" d="M3.74 0.19l-0.79 -0.18c-0.04,-0.02 -0.08,-0.01 -0.12,0.01 -0.04,0.02 -0.07,0.05 -0.09,0.08l-0.36 0.85c-0.02,0.04 -0.02,0.08 -0.01,0.12 0.01,0.04 0.03,0.07 0.06,0.1l0.46 0.37c-0.14,0.3 -0.32,0.56 -0.56,0.79 -0.22,0.24 -0.49,0.42 -0.79,0.56l-0.37 -0.46c-0.02,-0.03 -0.06,-0.05 -0.1,-0.06 -0.04,-0.01 -0.07,-0.01 -0.11,0.01l-0.85 0.36c-0.04,0.02 -0.07,0.05 -0.09,0.09 -0.02,0.04 -0.03,0.08 -0.01,0.12l0.18 0.79c0,0.04 0.02,0.08 0.06,0.1 0.03,0.03 0.07,0.04 0.11,0.04 0.64,0 1.23,-0.16 1.78,-0.48 0.53,-0.31 0.95,-0.73 1.26,-1.26 0.32,-0.55 0.48,-1.14 0.48,-1.78 0,-0.04 -0.01,-0.08 -0.04,-0.11 -0.02,-0.04 -0.06,-0.06 -0.1,-0.06z"/>
</svg>
